<?xml version="1.0" encoding="UTF-8"?>
<svg version="1.1" viewBox="0 0 2048 2048" width="1280" height="1280" xmlns="http://www.w3.org/2000/svg">
<path transform="translate(847,969)" d="m0 0h352l14 3 14 8 10 10 7 12 4 14v21l-4 13-6 11-10 11-13 8-13 4-7 1h-346l-15-3-13-7-10-9-6-8-6-12-3-12v-13l4-16 6-11 9-10 9-7 10-5z"/>
<path transform="translate(1608,969)" d="m0 0h349l16 3 12 6 10 9 6 7 6 12 3 12v17l-3 11-4 9-8 12-8 7-16 8-14 3h-346l-12-2-12-5-9-7-9-9-6-10-4-11-1-5v-17l3-12 6-12 6-8 8-7 10-6 11-4z"/>
<path transform="translate(89,969)" d="m0 0h348l16 3 12 6 10 9 6 7 6 12 3 12v17l-3 11-4 9-8 12-8 7-16 8-14 3h-346l-12-2-10-4-10-7-10-10-6-10-4-11-1-5v-17l3-12 6-12 9-10 8-7 12-6z"/>
</svg>
